<svg width="15" height="15" viewBox="0 0 15 15" fill="none" xmlns="http://www.w3.org/2000/svg">
<path d="M7.16667 13.8333C10.8487 13.8333 13.8333 10.8487 13.8333 7.16667C13.8333 3.48467 10.8487 0.5 7.16667 0.5C3.48467 0.5 0.5 3.48467 0.5 7.16667C0.5 10.8487 3.48467 13.8333 7.16667 13.8333Z" stroke="black" stroke-opacity="0.6" stroke-linecap="round" stroke-linejoin="round"/>
<path d="M7.16797 9.1665C7.6984 9.1665 8.20711 8.95579 8.58218 8.58072C8.95726 8.20564 9.16797 7.69694 9.16797 7.1665C9.16797 6.63607 8.95726 6.12736 8.58218 5.75229C8.20711 5.37722 7.6984 5.1665 7.16797 5.1665C6.63754 5.1665 6.12883 5.37722 5.75375 5.75229C5.37868 6.12736 5.16797 6.63607 5.16797 7.1665C5.16797 7.69694 5.37868 8.20564 5.75375 8.58072C6.12883 8.95579 6.63754 9.1665 7.16797 9.1665V9.1665Z" stroke="black" stroke-opacity="0.6" stroke-linecap="round" stroke-linejoin="round"/>
<path d="M0.5 7.1665H5.16667M9.16667 7.1665H13.8333" stroke="black" stroke-opacity="0.6"/>
</svg>
